<?xml version="1.0" encoding="utf-8"?>
<!-- Generator: Adobe Illustrator 19.0.1, SVG Export Plug-In . SVG Version: 6.00 Build 0)  -->
<svg version="1.1" id="Layer_1" xmlns="http://www.w3.org/2000/svg" xmlns:xlink="http://www.w3.org/1999/xlink" x="0px" y="0px"
	 viewBox="0 0 392.5 142" style="enable-background:new 0 0 392.5 142;" xml:space="preserve">
<style type="text/css">
	.st0{fill:#E34F7A;}
	.st1{fill:#642336;}
	.st2{fill:#FFFFFF;}
</style>
<g>
	<path class="st0" d="M194.6,46.2h-17.7v48.1h-14.2V46.2h-17.4v-11h49.4V46.2z"/>
	<path class="st0" d="M214.6,95.1c-6.7,0-12.2-2-16.3-6c-4.2-4-6.2-9.2-6.2-15.7v-1.1c0-4.5,0.8-8.5,2.5-11.9c1.7-3.4,4.1-6.1,7.3-8
		c3.2-1.9,7-2.8,11.4-2.8c6.2,0,11,1.9,14.6,5.7c3.6,3.8,5.4,9.2,5.4,16v5.3h-27.2c0.5,2.5,1.6,4.4,3.2,5.8c1.7,1.4,3.8,2.1,6.4,2.1
		c4.3,0,7.7-1.5,10.1-4.5l6.2,7.4c-1.7,2.4-4.1,4.2-7.2,5.6C221.5,94.4,218.2,95.1,214.6,95.1z M213,60.1c-4,0-6.4,2.7-7.1,8h13.8
		V67c0.1-2.2-0.5-3.9-1.7-5.1C216.9,60.7,215.2,60.1,213,60.1z"/>
	<path class="st1" d="M253.2,77.9l-3.9,3.9v12.5h-13.7V31.9h13.7V65l1.4-1.8L261,50.4h16.4l-15.4,18.1l16.4,25.8h-15.7L253.2,77.9z"
		/>
	<path class="st1" d="M291.4,55.1c2.9-3.7,6.7-5.5,11.2-5.5c4.8,0,8.5,1.4,11,4.3c2.5,2.9,3.7,7.1,3.8,12.7v27.7h-13.7V66.9
		c0-2.3-0.5-4-1.4-5.1c-0.9-1.1-2.6-1.6-4.8-1.6c-2.8,0-4.8,0.9-6,2.7v31.5h-13.7V31.9h13.7V55.1z"/>
	<path class="st0" d="M321.8,39c0-2,0.7-3.6,2.1-4.8c1.4-1.3,3.2-1.9,5.5-1.9c2.2,0,4.1,0.6,5.5,1.9c1.4,1.3,2.1,2.9,2.1,4.8
		c0,2-0.7,3.6-2.1,4.8c-1.4,1.3-3.2,1.9-5.5,1.9c-2.2,0-4.1-0.6-5.5-1.9C322.5,42.6,321.8,41,321.8,39z M336.4,94.3h-13.7V50.4h13.7
		V94.3z"/>
	<path class="st0" d="M354.3,50.4l0.4,5.2c3-4,7.2-6,12.5-6c4.6,0,8,1.4,10.2,4.1c2.3,2.7,3.4,6.8,3.5,12.3v28.3h-13.7V66.5
		c0-2.2-0.4-3.8-1.3-4.9c-0.9-1-2.5-1.6-4.9-1.6c-2.7,0-4.7,1.1-6,3.2v31h-13.7V50.4H354.3z"/>
</g>
<g>
	<path class="st0" d="M232.7,99.5h-5.5V114h-0.6V99.5h-5.5V99h11.5V99.5z"/>
	<path class="st0" d="M237.7,113l0.7-2.5l3.5-11.6h0.6l3.5,11.6l0.7,2.5l0.7-2.5l3.1-11.6h0.6l-4,15h-0.6l-3.7-12.5l-0.5-1.6
		l-0.5,1.6l-3.7,12.5h-0.6l-4-15h0.6l3.1,11.6L237.7,113z"/>
	<path class="st0" d="M261.1,106.5h-7.5v6.9h8.6v0.6H253V99h9.1v0.6h-8.6v6.4h7.5V106.5z"/>
	<path class="st0" d="M275.1,114h-0.6l-9.7-14v14h-0.6V99h0.6l9.7,14V99h0.6V114z"/>
	<path class="st0" d="M288.1,99.5h-5.5V114h-0.6V99.5h-5.5V99h11.5V99.5z"/>
	<path class="st0" d="M294.3,107.8l5.3-8.8h0.7l-5.7,9.3v5.7h-0.6v-5.7l-5.7-9.3h0.7L294.3,107.8z"/>
	<path class="st0" d="M304.8,107.4H300v-0.6h4.8V107.4z"/>
	<path class="st0" d="M315.2,106.6h-7.7v7.4h-0.6V99h9.3v0.6h-8.7v6.5h7.7V106.6z"/>
	<path class="st0" d="M319.2,114h-0.6V99h0.6V114z"/>
	<path class="st0" d="M331.2,106.6h-7.7v7.4H323V99h9.3v0.6h-8.7v6.5h7.7V106.6z"/>
	<path class="st0" d="M344.5,99.5H339V114h-0.6V99.5H333V99h11.5V99.5z"/>
	<path class="st0" d="M354.4,106.5h-7.5v6.9h8.6v0.6h-9.1V99h9.1v0.6h-8.6v6.4h7.5V106.5z"/>
	<path class="st0" d="M365.7,106.5h-7.5v6.9h8.6v0.6h-9.1V99h9.1v0.6h-8.6v6.4h7.5V106.5z"/>
	<path class="st0" d="M379.6,114h-0.6l-9.7-14v14h-0.6V99h0.6l9.7,14V99h0.6V114z"/>
</g>
<g>
	<path class="st0" d="M73.8,3c36.1-0.6,67.1,29.6,67.1,66.9c0,36.2-29.6,67.7-68.3,67c-36.7-0.6-66-30.8-65.8-67.5
		C7,32,38.2,2.4,73.8,3z M73.7,128.4c30.4,0.7,58.8-24.1,58.8-58.5c0-33.1-26.5-58.1-57.6-58.6c-32.4-0.5-59.7,25.1-59.7,58.5
		C15.2,104.5,43.7,129,73.7,128.4z"/>
	<path class="st2" d="M73.7,128.4c-30,0.6-58.5-23.9-58.5-58.6c0-33.5,27.2-59.1,59.7-58.5c31.1,0.5,57.6,25.5,57.6,58.6
		C132.5,104.3,104.1,129.1,73.7,128.4z M84.6,50.3c0-2-1.6-3.7-3.6-3.7c-2,0-3.6,1.6-3.7,3.6c0,2,1.6,3.6,3.6,3.7
		C82.9,53.9,84.5,52.3,84.6,50.3z M84.6,70.3c0-2-1.6-3.6-3.6-3.7c-2,0-3.7,1.5-3.7,3.5c0,2,1.6,3.7,3.5,3.7
		C82.8,73.9,84.5,72.3,84.6,70.3z M63.3,79.6c0-1.9-1.8-3.6-3.7-3.5c-2,0-3.6,1.7-3.5,3.7c0.1,2,1.7,3.6,3.7,3.6
		C61.7,83.2,63.4,81.5,63.3,79.6z M105.8,40c0-2-1.6-3.6-3.6-3.6c-2,0-3.6,1.6-3.6,3.6c0,2,1.7,3.7,3.6,3.7
		C104.1,43.7,105.8,42,105.8,40z M80.8,93.9c2,0.1,3.7-1.6,3.7-3.6c0.1-2-1.6-3.6-3.6-3.7c-2,0-3.7,1.5-3.7,3.5
		C77.3,92.2,78.8,93.8,80.8,93.9z M80.8,33.9c2,0,3.7-1.5,3.8-3.5c0.1-2-1.5-3.7-3.5-3.8c-2-0.1-3.7,1.5-3.7,3.5
		C77.2,32.2,78.8,33.9,80.8,33.9z M49.1,79.6c0-2-1.6-3.6-3.7-3.6c-2,0-3.7,1.8-3.6,3.7c0.1,2,1.8,3.6,3.7,3.6
		C47.5,83.2,49.1,81.6,49.1,79.6z M45.5,63.3c2,0,3.6-1.6,3.6-3.7c0-2-1.7-3.6-3.7-3.6c-1.9,0-3.7,1.8-3.6,3.7
		C41.8,61.7,43.5,63.3,45.5,63.3z M59.6,56c-2,0-3.6,1.7-3.6,3.7c0,2,1.6,3.6,3.6,3.6c2,0,3.7-1.7,3.6-3.6
		C63.3,57.7,61.6,56,59.6,56z M116.4,56.4c-2.1,0-3.6,1.5-3.6,3.5c0,2.1,1.5,3.7,3.5,3.7c2,0,3.6-1.6,3.7-3.6
		C120,58,118.4,56.4,116.4,56.4z M66.6,73.5c2.1,0.1,3.7-1.4,3.7-3.4c0.1-2.1-1.4-3.7-3.4-3.8c-1.9-0.1-3.7,1.5-3.8,3.5
		C63,71.8,64.6,73.5,66.6,73.5z M105.8,59.9c0-2-1.6-3.5-3.7-3.5c-2,0-3.6,1.7-3.6,3.7c0.1,2,1.8,3.6,3.7,3.5
		C104.3,63.6,105.8,61.9,105.8,59.9z M70.3,50.1c0.1-2-1.4-3.7-3.4-3.8c-1.9-0.1-3.7,1.6-3.8,3.5c-0.1,2,1.5,3.7,3.5,3.7
		C68.7,53.6,70.2,52.2,70.3,50.1z M91.6,30.3c0,2.1,1.4,3.6,3.5,3.6c2,0,3.7-1.6,3.7-3.5c0-1.9-1.7-3.7-3.6-3.7
		C93.2,26.7,91.6,28.3,91.6,30.3z M91.5,80c0-2.1-1.4-3.6-3.5-3.7c-2,0-3.7,1.5-3.7,3.5c0,1.9,1.7,3.7,3.6,3.7
		C89.9,83.7,91.5,82,91.5,80z M127,70c0-2-1.6-3.6-3.6-3.6c-1.9,0-3.7,1.7-3.7,3.6c0,2,1.6,3.6,3.7,3.6C125.5,73.5,127,72,127,70z
		 M73.7,123.7c2,0,3.7-1.5,3.8-3.5c0.1-1.9-1.7-3.7-3.6-3.8c-1.9-0.1-3.6,1.6-3.7,3.6C70.2,122.1,71.7,123.7,73.7,123.7z M70.3,90
		c0-2-1.6-3.7-3.5-3.7c-1.9,0-3.6,1.6-3.7,3.6c0,2,1.6,3.6,3.6,3.7C68.7,93.5,70.3,92,70.3,90z M109.3,93.5c2,0,3.5-1.6,3.5-3.7
		c0-2-1.7-3.7-3.7-3.6c-1.9,0.1-3.6,1.9-3.6,3.7C105.6,92,107.3,93.6,109.3,93.5z M91.6,90.2c0,2.1,1.6,3.6,3.6,3.6
		c1.9,0,3.6-1.7,3.6-3.7c0-2-1.7-3.6-3.7-3.6C93,86.6,91.5,88.1,91.6,90.2z M70.3,109.9c0-2.1-1.5-3.6-3.5-3.7c-2,0-3.7,1.6-3.7,3.6
		c0,2,1.6,3.7,3.6,3.7C68.7,113.5,70.3,111.9,70.3,109.9z M80.8,106.6c-2.1,0-3.6,1.6-3.5,3.6c0.1,2,1.7,3.6,3.7,3.6
		c2-0.1,3.6-1.8,3.6-3.7C84.5,108.1,82.9,106.6,80.8,106.6z M91.5,110.1c0,2.1,1.6,3.7,3.5,3.7c1.9,0,3.7-1.7,3.7-3.7
		c0-2-1.6-3.5-3.7-3.5C92.9,106.6,91.5,108,91.5,110.1z M49.1,39.8c0-2-1.6-3.7-3.6-3.7c-1.9,0-3.7,1.8-3.7,3.6c0,2,1.6,3.6,3.6,3.6
		C47.5,43.3,49.1,41.8,49.1,39.8z M63.3,39.7c0-1.9-1.8-3.7-3.7-3.7c-2,0-3.6,1.7-3.6,3.6c0,2,1.6,3.6,3.6,3.6
		C61.7,43.3,63.3,41.7,63.3,39.7z M38.4,53.4c1.9,0,3.6-1.7,3.6-3.7c0-2-1.6-3.6-3.6-3.6c-2.1,0-3.6,1.5-3.6,3.6
		C34.8,51.7,36.4,53.4,38.4,53.4z M91.5,59.9c0-2.1-1.4-3.5-3.6-3.5c-2,0-3.6,1.7-3.6,3.6c0,1.9,1.8,3.6,3.7,3.6
		C90.1,63.6,91.5,62,91.5,59.9z M42,89.6c0-1.9-1.7-3.7-3.6-3.7c-2,0-3.6,1.6-3.6,3.6c0,2.1,1.4,3.6,3.5,3.6
		C40.4,93.2,42,91.6,42,89.6z M49.1,99.6c0-2-1.5-3.6-3.6-3.6c-2,0-3.7,1.6-3.7,3.6c0,1.9,1.7,3.6,3.6,3.7
		C47.4,103.2,49.1,101.6,49.1,99.6z M63.3,99.6c0-2-1.7-3.6-3.7-3.6c-2,0-3.6,1.6-3.6,3.6c0,2,1.6,3.6,3.6,3.6
		C61.6,103.2,63.3,101.5,63.3,99.6z M112.8,80c0,2,1.6,3.7,3.6,3.6c1.9,0,3.6-1.8,3.6-3.7c0-2-1.6-3.6-3.7-3.6
		C114.2,76.4,112.8,77.8,112.8,80z M91.5,40.1c0-2.1-1.5-3.7-3.5-3.7c-2,0-3.7,1.6-3.7,3.6c0,1.9,1.7,3.7,3.6,3.7
		C89.9,43.7,91.5,42.1,91.5,40.1z M102.2,76.4c-2,0-3.7,1.5-3.7,3.5c0,1.9,1.6,3.7,3.6,3.7c1.9,0.1,3.6-1.6,3.7-3.6
		C105.8,78,104.3,76.4,102.2,76.4z M95.1,46.6c-2,0-3.6,1.5-3.6,3.6c0,2.1,1.5,3.6,3.5,3.7c2,0,3.7-1.6,3.7-3.6
		C98.8,48.4,97.1,46.7,95.1,46.6z M95.1,66.6c-2.1,0-3.6,1.5-3.6,3.6c0,2.1,1.5,3.7,3.5,3.7c1.9,0,3.7-1.7,3.7-3.6
		C98.8,68.3,97.1,66.7,95.1,66.6z M109.3,73.5c2.1,0,3.6-1.5,3.5-3.6c0-2-1.7-3.6-3.6-3.6c-2,0-3.6,1.8-3.6,3.7
		C105.6,72,107.3,73.5,109.3,73.5z M112.8,50.1c0-2-1.5-3.7-3.5-3.8c-1.9-0.1-3.7,1.6-3.7,3.6c-0.1,2,1.5,3.6,3.6,3.7
		C111.3,53.6,112.8,52.2,112.8,50.1z M27.8,59.5c-0.1,2.1,1.3,3.7,3.3,3.8c2,0.1,3.7-1.4,3.8-3.4c0.1-2-1.4-3.7-3.4-3.9
		C29.5,55.9,27.9,57.4,27.8,59.5z M38.4,73.2c2.1,0,3.6-1.6,3.6-3.6c0-2-1.6-3.5-3.6-3.5c-2.1,0-3.6,1.5-3.6,3.6
		C34.8,71.8,36.3,73.2,38.4,73.2z M27.8,79.6c0,2.1,1.5,3.7,3.5,3.7c2,0,3.6-1.6,3.6-3.6c0-2.1-1.5-3.6-3.6-3.6
		C29.2,76,27.8,77.5,27.8,79.6z M56.1,69.9c0-2.1-1.5-3.6-3.6-3.6c-2,0-3.5,1.6-3.5,3.7c0,2.1,1.5,3.6,3.6,3.5
		C54.7,73.5,56.1,72.1,56.1,69.9z M56.1,89.9c0-2-1.6-3.7-3.5-3.7c-2,0-3.6,1.6-3.6,3.6c0,2.1,1.5,3.6,3.5,3.6
		C54.6,93.5,56.1,92,56.1,89.9z M91.5,99.9c0-2.1-1.4-3.6-3.5-3.5c-2,0-3.7,1.6-3.7,3.6c0,1.9,1.7,3.5,3.7,3.5
		C90.2,103.4,91.5,102.1,91.5,99.9z M73.7,103.7c2.1,0,3.7-1.5,3.7-3.5c0.1-1.9-1.6-3.7-3.6-3.7c-2-0.1-3.6,1.6-3.7,3.6
		C70.2,102.2,71.7,103.7,73.7,103.7z M70.3,30.1c0-2.1-1.4-3.5-3.5-3.6c-2.1,0-3.6,1.5-3.7,3.5c0,1.9,1.6,3.6,3.6,3.6
		C68.8,33.6,70.3,32.2,70.3,30.1z M56.1,50.1c0-2-1.5-3.7-3.5-3.7c-1.9,0-3.6,1.6-3.6,3.6c0,2.1,1.4,3.6,3.5,3.6
		C54.6,53.6,56.1,52.2,56.1,50.1z M73.9,16.8c-2.1,0-3.6,1.4-3.7,3.5c0,2,1.5,3.7,3.5,3.7c1.9,0.1,3.7-1.6,3.7-3.6
		C77.5,18.4,76,16.8,73.9,16.8z M49,109.9c0,2,1.6,3.6,3.6,3.6c2,0,3.5-1.6,3.5-3.7c0-2.1-1.5-3.6-3.6-3.6
		C50.5,106.3,49,107.8,49,109.9z M73.9,83.8c2,0,3.6-1.7,3.6-3.7c0-1.9-1.9-3.7-3.7-3.6c-2,0.1-3.5,1.7-3.5,3.7
		C70.3,82.4,71.8,83.8,73.9,83.8z M77.5,40.3c0-1.9-1.7-3.6-3.7-3.6c-2.1,0-3.6,1.5-3.6,3.6c0,2,1.6,3.7,3.6,3.7
		C75.7,44,77.5,42.2,77.5,40.3z M102.2,103.4c2.1,0,3.6-1.5,3.6-3.6c0-2-1.6-3.5-3.7-3.5c-2,0-3.6,1.6-3.6,3.6
		C98.5,101.9,100.1,103.4,102.2,103.4z M24.1,73.2c2.1,0.1,3.7-1.3,3.7-3.4c0.1-2.1-1.4-3.6-3.5-3.7c-2-0.1-3.7,1.4-3.8,3.4
		C20.5,71.5,22.1,73.2,24.1,73.2z M73.8,63.8c2,0,3.7-1.6,3.7-3.5c0-2-1.6-3.5-3.7-3.5c-2.1,0-3.6,1.5-3.6,3.6
		C70.2,62.3,71.7,63.8,73.8,63.8z M56.1,30.1c0-2.1-1.4-3.6-3.5-3.6c-2.1,0-3.6,1.4-3.6,3.5c0,2.1,1.4,3.6,3.5,3.6
		C54.6,33.6,56.1,32.2,56.1,30.1z"/>
	<path d="M84.6,50.3c0,2-1.7,3.6-3.7,3.6c-2,0-3.6-1.6-3.6-3.7c0-2,1.7-3.6,3.7-3.6C82.9,46.7,84.6,48.4,84.6,50.3z"/>
	<path d="M84.6,70.3c0,2-1.7,3.6-3.7,3.6c-2,0-3.6-1.7-3.5-3.7c0-2,1.7-3.6,3.7-3.5C83,66.7,84.6,68.3,84.6,70.3z"/>
	<path d="M63.3,79.6c0,2-1.6,3.7-3.6,3.7c-2,0.1-3.6-1.6-3.7-3.6c-0.1-2,1.5-3.7,3.5-3.7C61.5,76,63.3,77.6,63.3,79.6z"/>
	<path d="M105.8,40c0,2-1.7,3.7-3.6,3.7c-1.9,0-3.6-1.7-3.6-3.7c0-2,1.6-3.6,3.6-3.6C104.2,36.4,105.8,38,105.8,40z"/>
	<path d="M80.8,93.9c-2-0.1-3.6-1.7-3.5-3.7c0-2,1.7-3.6,3.7-3.5c2,0,3.6,1.7,3.6,3.7C84.5,92.3,82.8,93.9,80.8,93.9z"/>
	<path d="M80.8,33.9c-2,0-3.6-1.7-3.5-3.7c0.1-2,1.8-3.6,3.7-3.5c2,0.1,3.6,1.8,3.5,3.8C84.5,32.4,82.8,34,80.8,33.9z"/>
	<path d="M49.1,79.6c0,2-1.6,3.7-3.5,3.7c-1.9,0-3.7-1.6-3.7-3.6c-0.1-1.9,1.6-3.6,3.6-3.7C47.4,76,49,77.6,49.1,79.6z"/>
	<path d="M45.5,63.3c-2,0-3.7-1.6-3.7-3.6c0-1.9,1.7-3.7,3.6-3.7c2,0,3.6,1.6,3.7,3.6C49.1,61.7,47.5,63.3,45.5,63.3z"/>
	<path d="M59.6,56c2,0,3.7,1.6,3.7,3.6c0,1.9-1.7,3.6-3.6,3.6c-2,0-3.6-1.6-3.6-3.6C56,57.7,57.7,56,59.6,56z"/>
	<path d="M116.4,56.4c2,0,3.6,1.6,3.6,3.6c0,2-1.7,3.6-3.7,3.6c-2,0-3.5-1.6-3.5-3.7C112.8,57.9,114.3,56.4,116.4,56.4z"/>
	<path d="M66.6,73.5c-2-0.1-3.6-1.8-3.5-3.7c0.1-2,1.8-3.6,3.8-3.5c2,0.1,3.5,1.7,3.4,3.8C70.2,72.2,68.7,73.6,66.6,73.5z"/>
	<path d="M105.8,59.9c0,2-1.5,3.7-3.5,3.7c-2,0-3.7-1.6-3.7-3.5c-0.1-2,1.6-3.6,3.6-3.7C104.2,56.4,105.7,57.9,105.8,59.9z"/>
	<path d="M70.3,50.1c-0.1,2.1-1.6,3.5-3.7,3.4c-2-0.1-3.6-1.7-3.5-3.7c0.1-1.9,1.9-3.6,3.8-3.5C68.9,46.4,70.4,48.1,70.3,50.1z"/>
	<path d="M91.6,30.3c0-2,1.6-3.6,3.6-3.6c1.9,0,3.6,1.8,3.6,3.7c0,2-1.7,3.6-3.7,3.5C93,33.9,91.5,32.4,91.6,30.3z"/>
	<path d="M91.5,80c0,2-1.7,3.7-3.6,3.6c-1.9-0.1-3.6-1.8-3.6-3.7c0-2,1.7-3.6,3.7-3.5C90.1,76.4,91.6,77.9,91.5,80z"/>
	<path d="M127,70c0,2-1.6,3.6-3.6,3.6c-2,0-3.7-1.6-3.7-3.6c0-1.9,1.7-3.6,3.7-3.6C125.4,66.3,127,68,127,70z"/>
	<path d="M73.7,123.7c-2,0-3.5-1.6-3.5-3.7c0.1-2,1.7-3.6,3.7-3.6c1.9,0.1,3.6,1.9,3.6,3.8C77.4,122.2,75.8,123.8,73.7,123.7z"/>
	<path d="M70.3,90c0,2.1-1.6,3.6-3.6,3.6c-2,0-3.6-1.7-3.6-3.7c0-2,1.7-3.6,3.7-3.6C68.7,86.3,70.3,87.9,70.3,90z"/>
	<path d="M109.3,93.5c-2,0-3.7-1.6-3.7-3.5c-0.1-1.9,1.7-3.7,3.6-3.7c1.9-0.1,3.6,1.6,3.7,3.6C112.9,91.9,111.4,93.5,109.3,93.5z"/>
	<path d="M91.6,90.2c0-2.1,1.4-3.6,3.5-3.6c2,0,3.7,1.6,3.7,3.6c0,1.9-1.7,3.7-3.6,3.7C93.1,93.9,91.6,92.3,91.6,90.2z"/>
	<path d="M70.3,109.9c0,2-1.6,3.6-3.6,3.6c-2,0-3.6-1.7-3.6-3.7c0-2,1.7-3.6,3.7-3.6C68.8,106.3,70.3,107.8,70.3,109.9z"/>
	<path d="M80.8,106.6c2.1,0,3.7,1.5,3.7,3.5c0,2-1.6,3.7-3.6,3.7c-2,0.1-3.6-1.6-3.7-3.6C77.2,108.2,78.8,106.6,80.8,106.6z"/>
	<path d="M91.5,110.1c0-2.1,1.4-3.5,3.6-3.5c2,0,3.7,1.6,3.7,3.5c0,1.9-1.8,3.6-3.7,3.7C93.1,113.8,91.5,112.2,91.5,110.1z"/>
	<path d="M49.1,39.8c0,2-1.6,3.6-3.7,3.5c-2,0-3.6-1.7-3.6-3.6c0-1.9,1.8-3.6,3.7-3.6C47.5,36.1,49.1,37.8,49.1,39.8z"/>
	<path d="M63.3,39.7c0,2-1.7,3.6-3.7,3.6c-2,0-3.6-1.6-3.6-3.6c0-2,1.7-3.6,3.6-3.6C61.6,36.1,63.3,37.9,63.3,39.7z"/>
	<path d="M38.4,53.4c-2,0-3.6-1.6-3.6-3.6c0-2.1,1.5-3.6,3.6-3.6c2,0,3.6,1.6,3.6,3.6C42,51.6,40.3,53.4,38.4,53.4z"/>
	<path d="M91.5,59.9c0,2.1-1.5,3.7-3.5,3.7c-1.9,0-3.7-1.7-3.7-3.6c0-2,1.6-3.6,3.6-3.6C90.1,56.4,91.5,57.8,91.5,59.9z"/>
	<path d="M42,89.6c0,2-1.7,3.6-3.7,3.6c-2.1,0-3.5-1.5-3.5-3.6c0-2,1.6-3.6,3.6-3.6C40.3,85.9,42,87.7,42,89.6z"/>
	<path d="M49.1,99.6c0,2-1.6,3.6-3.6,3.6c-2,0-3.7-1.7-3.6-3.7c0-2,1.7-3.6,3.7-3.6C47.5,96,49.1,97.6,49.1,99.6z"/>
	<path d="M63.3,99.6c0,1.9-1.7,3.6-3.7,3.6c-2,0-3.6-1.6-3.6-3.6c0-2,1.6-3.6,3.6-3.6C61.7,96,63.3,97.6,63.3,99.6z"/>
	<path d="M112.8,80c0-2.1,1.5-3.6,3.5-3.6c2,0,3.7,1.6,3.7,3.6c0,1.9-1.7,3.7-3.6,3.7C114.4,83.6,112.8,82,112.8,80z"/>
	<path d="M91.5,40.1c0,2-1.6,3.6-3.6,3.6c-1.9,0-3.6-1.8-3.6-3.7c0-2,1.7-3.6,3.7-3.6C90,36.4,91.6,38,91.5,40.1z"/>
	<path d="M102.2,76.4c2,0,3.6,1.6,3.5,3.7c0,2-1.7,3.7-3.7,3.6c-1.9-0.1-3.6-1.8-3.6-3.7C98.6,77.9,100.2,76.3,102.2,76.4z"/>
	<path d="M95.1,46.6c1.9,0,3.6,1.8,3.6,3.7c0,2-1.7,3.6-3.7,3.6c-2,0-3.5-1.6-3.5-3.7C91.6,48.2,93.1,46.6,95.1,46.6z"/>
	<path d="M95.1,66.6c2,0,3.6,1.7,3.6,3.6c0,1.9-1.8,3.6-3.7,3.6c-2,0-3.5-1.6-3.5-3.7C91.6,68.1,93.1,66.6,95.1,66.6z"/>
	<path d="M109.3,73.5c-2.1,0-3.7-1.5-3.7-3.5c0-1.9,1.6-3.7,3.6-3.7c2,0,3.6,1.6,3.6,3.6C112.9,72,111.4,73.5,109.3,73.5z"/>
	<path d="M112.8,50.1c0,2.1-1.6,3.5-3.7,3.5c-2,0-3.6-1.7-3.6-3.7c0.1-1.9,1.8-3.6,3.7-3.6C111.3,46.4,112.9,48.1,112.8,50.1z"/>
	<path d="M27.8,59.5c0.1-2.1,1.7-3.6,3.7-3.5c2,0.1,3.5,1.8,3.4,3.9c-0.1,2-1.7,3.5-3.8,3.4C29,63.2,27.7,61.6,27.8,59.5z"/>
	<path d="M38.4,73.2c-2.1,0-3.6-1.4-3.6-3.5c0-2.1,1.5-3.6,3.6-3.6c2.1,0,3.6,1.5,3.6,3.5C42,71.7,40.4,73.2,38.4,73.2z"/>
	<path d="M27.8,79.6c0-2.1,1.5-3.6,3.6-3.6c2,0,3.6,1.5,3.6,3.6c0,2-1.6,3.6-3.6,3.6C29.3,83.3,27.8,81.7,27.8,79.6z"/>
	<path d="M56.1,69.9c0,2.1-1.4,3.6-3.5,3.6c-2.1,0-3.6-1.4-3.6-3.5c0-2.1,1.5-3.7,3.5-3.7C54.6,66.3,56.1,67.9,56.1,69.9z"/>
	<path d="M56.1,89.9c0,2.1-1.5,3.6-3.6,3.6c-2.1,0-3.5-1.5-3.5-3.6c0-2,1.6-3.7,3.6-3.6C54.5,86.3,56.1,87.9,56.1,89.9z"/>
	<path d="M91.5,99.9c0,2.2-1.3,3.5-3.5,3.5c-2,0-3.7-1.6-3.7-3.5c0-1.9,1.6-3.6,3.7-3.6C90.1,96.3,91.5,97.7,91.5,99.9z"/>
	<path d="M73.7,103.7c-2.1,0-3.5-1.5-3.5-3.6c0-2,1.7-3.6,3.7-3.6c1.9,0.1,3.6,1.8,3.6,3.7C77.4,102.3,75.8,103.8,73.7,103.7z"/>
	<path d="M70.3,30.1c0,2.1-1.5,3.5-3.6,3.5c-2,0-3.6-1.6-3.6-3.6c0-2,1.6-3.5,3.7-3.5C68.9,26.5,70.3,27.9,70.3,30.1z"/>
	<path d="M56.1,50.1c0,2.1-1.5,3.6-3.6,3.5c-2.1,0-3.5-1.5-3.5-3.6c0-2,1.7-3.7,3.6-3.6C54.6,46.4,56.1,48,56.1,50.1z"/>
	<path d="M73.9,16.8c2,0,3.6,1.6,3.6,3.6c0,1.9-1.8,3.6-3.7,3.6c-2-0.1-3.5-1.7-3.5-3.7C70.3,18.2,71.8,16.8,73.9,16.8z"/>
	<path d="M49,109.9c0-2.1,1.5-3.6,3.5-3.6c2.1,0,3.6,1.5,3.6,3.6c0,2.1-1.5,3.7-3.5,3.7C50.6,113.5,49,111.9,49,109.9z"/>
	<path d="M73.9,83.8c-2.1,0-3.6-1.4-3.7-3.5c0-2,1.5-3.7,3.5-3.7c1.9-0.1,3.7,1.7,3.7,3.6C77.5,82.1,75.9,83.8,73.9,83.8z"/>
	<path d="M77.5,40.3c0,1.9-1.8,3.7-3.7,3.7c-2,0-3.6-1.6-3.6-3.7c0-2.1,1.5-3.6,3.6-3.6C75.8,36.7,77.5,38.4,77.5,40.3z"/>
	<path d="M102.2,103.4c-2.1,0-3.7-1.5-3.7-3.5c0-2,1.6-3.6,3.6-3.6c2.1,0,3.6,1.5,3.7,3.5C105.8,101.9,104.3,103.4,102.2,103.4z"/>
	<path d="M24.1,73.2c-2-0.1-3.6-1.7-3.5-3.7c0.1-2,1.8-3.5,3.8-3.4c2.1,0.1,3.5,1.6,3.5,3.7C27.8,71.9,26.2,73.3,24.1,73.2z"/>
	<path d="M73.8,63.8c-2.1,0-3.6-1.5-3.6-3.5c0-2.1,1.5-3.6,3.6-3.6c2,0,3.7,1.6,3.7,3.5C77.5,62.3,75.9,63.8,73.8,63.8z"/>
	<path d="M56.1,30.1c0,2.1-1.5,3.6-3.6,3.5c-2.1,0-3.5-1.5-3.5-3.6c0-2.1,1.4-3.5,3.6-3.5C54.7,26.5,56.1,27.9,56.1,30.1z"/>
</g>
</svg>
