<?xml version="1.0" encoding="UTF-8" standalone="no"?>
<!-- Generator: Adobe Illustrator 19.0.1, SVG Export Plug-In . SVG Version: 6.00 Build 0)  -->

<svg
   xmlns:dc="http://purl.org/dc/elements/1.1/"
   xmlns:cc="http://creativecommons.org/ns#"
   xmlns:rdf="http://www.w3.org/1999/02/22-rdf-syntax-ns#"
   xmlns:svg="http://www.w3.org/2000/svg"
   xmlns="http://www.w3.org/2000/svg"
   xmlns:sodipodi="http://sodipodi.sourceforge.net/DTD/sodipodi-0.dtd"
   xmlns:inkscape="http://www.inkscape.org/namespaces/inkscape"
   version="1.1"
   id="Layer_1"
   x="0px"
   y="0px"
   viewBox="0 0 392.5 142"
   style="enable-background:new 0 0 392.5 142;"
   xml:space="preserve"
   inkscape:version="0.48.4 r9939"
   width="100%"
   height="100%"
   sodipodi:docname="tekhin2015.svg"><metadata
     id="metadata167"><rdf:RDF><cc:Work
         rdf:about=""><dc:format>image/svg+xml</dc:format><dc:type
           rdf:resource="http://purl.org/dc/dcmitype/StillImage" /><dc:title></dc:title></cc:Work></rdf:RDF></metadata><defs
     id="defs165" /><sodipodi:namedview
     pagecolor="#ffffff"
     bordercolor="#666666"
     borderopacity="1"
     objecttolerance="10"
     gridtolerance="10"
     guidetolerance="10"
     inkscape:pageopacity="0"
     inkscape:pageshadow="2"
     inkscape:window-width="1920"
     inkscape:window-height="1056"
     id="namedview163"
     showgrid="false"
     inkscape:zoom="1.4878981"
     inkscape:cx="94.28671"
     inkscape:cy="28.971983"
     inkscape:window-x="0"
     inkscape:window-y="24"
     inkscape:window-maximized="1"
     inkscape:current-layer="Layer_1" /><style
     type="text/css"
     id="style3">
	.st0{fill:#E34F7A;}
	.st1{fill:#642336;}
	.st2{fill:#FFFFFF;}
</style><rect
     style="fill:#ffffff;stroke:none;stroke-width:2.00000023999999987;stroke-miterlimit:4;stroke-opacity:1;stroke-dasharray:none;stroke-dashoffset:0;fill-opacity:1"
     id="rect3144"
     width="258"
     height="258"
     x="130.53209"
     y="-123.80234"
     inkscape:export-filename="/home/lyle/Pictures/tekhintall.png"
     inkscape:export-xdpi="330"
     inkscape:export-ydpi="330" /><g
     id="g5"
     inkscape:export-filename="/home/lyle/Pictures/tekhintall.png"
     inkscape:export-xdpi="330"
     inkscape:export-ydpi="330"><path
       class="st0"
       d="M194.6,46.2h-17.7v48.1h-14.2V46.2h-17.4v-11h49.4V46.2z"
       id="path7" /><path
       class="st0"
       d="M214.6,95.1c-6.7,0-12.2-2-16.3-6c-4.2-4-6.2-9.2-6.2-15.7v-1.1c0-4.5,0.8-8.5,2.5-11.9c1.7-3.4,4.1-6.1,7.3-8   c3.2-1.9,7-2.8,11.4-2.8c6.2,0,11,1.9,14.6,5.7c3.6,3.8,5.4,9.2,5.4,16v5.3h-27.2c0.5,2.5,1.6,4.4,3.2,5.8c1.7,1.4,3.8,2.1,6.4,2.1   c4.3,0,7.7-1.5,10.1-4.5l6.2,7.4c-1.7,2.4-4.1,4.2-7.2,5.6C221.5,94.4,218.2,95.1,214.6,95.1z M213,60.1c-4,0-6.4,2.7-7.1,8h13.8   V67c0.1-2.2-0.5-3.9-1.7-5.1C216.9,60.7,215.2,60.1,213,60.1z"
       id="path9" /><path
       class="st1"
       d="M253.2,77.9l-3.9,3.9v12.5h-13.7V31.9h13.7V65l1.4-1.8L261,50.4h16.4l-15.4,18.1l16.4,25.8h-15.7L253.2,77.9z"
       id="path11" /><path
       class="st1"
       d="M291.4,55.1c2.9-3.7,6.7-5.5,11.2-5.5c4.8,0,8.5,1.4,11,4.3c2.5,2.9,3.7,7.1,3.8,12.7v27.7h-13.7V66.9   c0-2.3-0.5-4-1.4-5.1c-0.9-1.1-2.6-1.6-4.8-1.6c-2.8,0-4.8,0.9-6,2.7v31.5h-13.7V31.9h13.7V55.1z"
       id="path13" /><path
       class="st0"
       d="M321.8,39c0-2,0.7-3.6,2.1-4.8c1.4-1.3,3.2-1.9,5.5-1.9c2.2,0,4.1,0.6,5.5,1.9c1.4,1.3,2.1,2.9,2.1,4.8   c0,2-0.7,3.6-2.1,4.8c-1.4,1.3-3.2,1.9-5.5,1.9c-2.2,0-4.1-0.6-5.5-1.9C322.5,42.6,321.8,41,321.8,39z M336.4,94.3h-13.7V50.4h13.7   V94.3z"
       id="path15" /><path
       class="st0"
       d="M354.3,50.4l0.4,5.2c3-4,7.2-6,12.5-6c4.6,0,8,1.4,10.2,4.1c2.3,2.7,3.4,6.8,3.5,12.3v28.3h-13.7V66.5   c0-2.2-0.4-3.8-1.3-4.9c-0.9-1-2.5-1.6-4.9-1.6c-2.7,0-4.7,1.1-6,3.2v31h-13.7V50.4H354.3z"
       id="path17" /></g><g
     id="g19"
     inkscape:export-filename="/home/lyle/Pictures/tekhintall.png"
     inkscape:export-xdpi="330"
     inkscape:export-ydpi="330"><path
       class="st0"
       d="M232.7,99.5h-5.5V114h-0.6V99.5h-5.5V99h11.5V99.5z"
       id="path21" /><path
       class="st0"
       d="M237.7,113l0.7-2.5l3.5-11.6h0.6l3.5,11.6l0.7,2.5l0.7-2.5l3.1-11.6h0.6l-4,15h-0.6l-3.7-12.5l-0.5-1.6   l-0.5,1.6l-3.7,12.5h-0.6l-4-15h0.6l3.1,11.6L237.7,113z"
       id="path23" /><path
       class="st0"
       d="M261.1,106.5h-7.5v6.9h8.6v0.6H253V99h9.1v0.6h-8.6v6.4h7.5V106.5z"
       id="path25" /><path
       class="st0"
       d="M275.1,114h-0.6l-9.7-14v14h-0.6V99h0.6l9.7,14V99h0.6V114z"
       id="path27" /><path
       class="st0"
       d="M288.1,99.5h-5.5V114h-0.6V99.5h-5.5V99h11.5V99.5z"
       id="path29" /><path
       class="st0"
       d="M294.3,107.8l5.3-8.8h0.7l-5.7,9.3v5.7h-0.6v-5.7l-5.7-9.3h0.7L294.3,107.8z"
       id="path31" /><path
       class="st0"
       d="M304.8,107.4H300v-0.6h4.8V107.4z"
       id="path33" /><path
       class="st0"
       d="M315.2,106.6h-7.7v7.4h-0.6V99h9.3v0.6h-8.7v6.5h7.7V106.6z"
       id="path35" /><path
       class="st0"
       d="M319.2,114h-0.6V99h0.6V114z"
       id="path37" /><path
       class="st0"
       d="M331.2,106.6h-7.7v7.4H323V99h9.3v0.6h-8.7v6.5h7.7V106.6z"
       id="path39" /><path
       class="st0"
       d="M344.5,99.5H339V114h-0.6V99.5H333V99h11.5V99.5z"
       id="path41" /><path
       class="st0"
       d="M354.4,106.5h-7.5v6.9h8.6v0.6h-9.1V99h9.1v0.6h-8.6v6.4h7.5V106.5z"
       id="path43" /><path
       class="st0"
       d="M365.7,106.5h-7.5v6.9h8.6v0.6h-9.1V99h9.1v0.6h-8.6v6.4h7.5V106.5z"
       id="path45" /><path
       class="st0"
       d="M379.6,114h-0.6l-9.7-14v14h-0.6V99h0.6l9.7,14V99h0.6V114z"
       id="path47" /></g><g
     id="g49"
     transform="translate(188.36387,-117.61558)"
     inkscape:export-filename="/home/lyle/Pictures/dragonfruit.png"
     inkscape:export-xdpi="330"
     inkscape:export-ydpi="330"><path
       class="st0"
       d="m 73.8,3 c 36.1,-0.6 67.1,29.6 67.1,66.9 0,36.2 -29.6,67.7 -68.3,67 C 35.9,136.3 6.6,106.1 6.8,69.4 7,32 38.2,2.4 73.8,3 z m -0.1,125.4 c 30.4,0.7 58.8,-24.1 58.8,-58.5 C 132.5,36.8 106,11.8 74.9,11.3 42.5,10.8 15.2,36.4 15.2,69.8 c 0,34.7 28.5,59.2 58.5,58.6 z"
       id="path51"
       inkscape:connector-curvature="0"
       style="fill:#e34f7a" /><path
       class="st2"
       d="m 73.7,128.4 c -30,0.6 -58.5,-23.9 -58.5,-58.6 0,-33.5 27.2,-59.1 59.7,-58.5 31.1,0.5 57.6,25.5 57.6,58.6 0,34.4 -28.4,59.2 -58.8,58.5 z M 84.6,50.3 c 0,-2 -1.6,-3.7 -3.6,-3.7 -2,0 -3.6,1.6 -3.7,3.6 0,2 1.6,3.6 3.6,3.7 2,0 3.6,-1.6 3.7,-3.6 z m 0,20 c 0,-2 -1.6,-3.6 -3.6,-3.7 -2,0 -3.7,1.5 -3.7,3.5 0,2 1.6,3.7 3.5,3.7 2,0.1 3.7,-1.5 3.8,-3.5 z m -21.3,9.3 c 0,-1.9 -1.8,-3.6 -3.7,-3.5 -2,0 -3.6,1.7 -3.5,3.7 0.1,2 1.7,3.6 3.7,3.6 1.9,-0.2 3.6,-1.9 3.5,-3.8 z M 105.8,40 c 0,-2 -1.6,-3.6 -3.6,-3.6 -2,0 -3.6,1.6 -3.6,3.6 0,2 1.7,3.7 3.6,3.7 1.9,0 3.6,-1.7 3.6,-3.7 z m -25,53.9 c 2,0.1 3.7,-1.6 3.7,-3.6 0.1,-2 -1.6,-3.6 -3.6,-3.7 -2,0 -3.7,1.5 -3.7,3.5 0.1,2.1 1.6,3.7 3.6,3.8 z m 0,-60 c 2,0 3.7,-1.5 3.8,-3.5 0.1,-2 -1.5,-3.7 -3.5,-3.8 -2,-0.1 -3.7,1.5 -3.7,3.5 -0.2,2.1 1.4,3.8 3.4,3.8 z M 49.1,79.6 c 0,-2 -1.6,-3.6 -3.7,-3.6 -2,0 -3.7,1.8 -3.6,3.7 0.1,2 1.8,3.6 3.7,3.6 2,-0.1 3.6,-1.7 3.6,-3.7 z M 45.5,63.3 c 2,0 3.6,-1.6 3.6,-3.7 0,-2 -1.7,-3.6 -3.7,-3.6 -1.9,0 -3.7,1.8 -3.6,3.7 0,2 1.7,3.6 3.7,3.6 z M 59.6,56 c -2,0 -3.6,1.7 -3.6,3.7 0,2 1.6,3.6 3.6,3.6 2,0 3.7,-1.7 3.6,-3.6 0.1,-2 -1.6,-3.7 -3.6,-3.7 z m 56.8,0.4 c -2.1,0 -3.6,1.5 -3.6,3.5 0,2.1 1.5,3.7 3.5,3.7 2,0 3.6,-1.6 3.7,-3.6 0,-2 -1.6,-3.6 -3.6,-3.6 z M 66.6,73.5 c 2.1,0.1 3.7,-1.4 3.7,-3.4 0.1,-2.1 -1.4,-3.7 -3.4,-3.8 -1.9,-0.1 -3.7,1.5 -3.8,3.5 -0.1,2 1.5,3.7 3.5,3.7 z m 39.2,-13.6 c 0,-2 -1.6,-3.5 -3.7,-3.5 -2,0 -3.6,1.7 -3.6,3.7 0.1,2 1.8,3.6 3.7,3.5 2.1,0 3.6,-1.7 3.6,-3.7 z M 70.3,50.1 c 0.1,-2 -1.4,-3.7 -3.4,-3.8 -1.9,-0.1 -3.7,1.6 -3.8,3.5 -0.1,2 1.5,3.7 3.5,3.7 2.1,0.1 3.6,-1.3 3.7,-3.4 z M 91.6,30.3 c 0,2.1 1.4,3.6 3.5,3.6 2,0 3.7,-1.6 3.7,-3.5 0,-1.9 -1.7,-3.7 -3.6,-3.7 -2,0 -3.6,1.6 -3.6,3.6 z M 91.5,80 c 0,-2.1 -1.4,-3.6 -3.5,-3.7 -2,0 -3.7,1.5 -3.7,3.5 0,1.9 1.7,3.7 3.6,3.7 2,0.2 3.6,-1.5 3.6,-3.5 z M 127,70 c 0,-2 -1.6,-3.6 -3.6,-3.6 -1.9,0 -3.7,1.7 -3.7,3.6 0,2 1.6,3.6 3.7,3.6 2.1,-0.1 3.6,-1.6 3.6,-3.6 z m -53.3,53.7 c 2,0 3.7,-1.5 3.8,-3.5 0.1,-1.9 -1.7,-3.7 -3.6,-3.8 -1.9,-0.1 -3.6,1.6 -3.7,3.6 0,2.1 1.5,3.7 3.5,3.7 z M 70.3,90 c 0,-2 -1.6,-3.7 -3.5,-3.7 -1.9,0 -3.6,1.6 -3.7,3.6 0,2 1.6,3.6 3.6,3.7 2,-0.1 3.6,-1.6 3.6,-3.6 z m 39,3.5 c 2,0 3.5,-1.6 3.5,-3.7 0,-2 -1.7,-3.7 -3.7,-3.6 -1.9,0.1 -3.6,1.9 -3.6,3.7 0.1,2.1 1.8,3.7 3.8,3.6 z M 91.6,90.2 c 0,2.1 1.6,3.6 3.6,3.6 1.9,0 3.6,-1.7 3.6,-3.7 0,-2 -1.7,-3.6 -3.7,-3.6 -2.1,0.1 -3.6,1.6 -3.5,3.7 z m -21.3,19.7 c 0,-2.1 -1.5,-3.6 -3.5,-3.7 -2,0 -3.7,1.6 -3.7,3.6 0,2 1.6,3.7 3.6,3.7 2,0 3.6,-1.6 3.6,-3.6 z m 10.5,-3.3 c -2.1,0 -3.6,1.6 -3.5,3.6 0.1,2 1.7,3.6 3.7,3.6 2,-0.1 3.6,-1.8 3.6,-3.7 -0.1,-2 -1.7,-3.5 -3.8,-3.5 z m 10.7,3.5 c 0,2.1 1.6,3.7 3.5,3.7 1.9,0 3.7,-1.7 3.7,-3.7 0,-2 -1.6,-3.5 -3.7,-3.5 -2.1,0 -3.5,1.4 -3.5,3.5 z M 49.1,39.8 c 0,-2 -1.6,-3.7 -3.6,-3.7 -1.9,0 -3.7,1.8 -3.7,3.6 0,2 1.6,3.6 3.6,3.6 2.1,0 3.7,-1.5 3.7,-3.5 z m 14.2,-0.1 c 0,-1.9 -1.8,-3.7 -3.7,-3.7 -2,0 -3.6,1.7 -3.6,3.6 0,2 1.6,3.6 3.6,3.6 2.1,0.1 3.7,-1.5 3.7,-3.5 z M 38.4,53.4 c 1.9,0 3.6,-1.7 3.6,-3.7 0,-2 -1.6,-3.6 -3.6,-3.6 -2.1,0 -3.6,1.5 -3.6,3.6 0,2 1.6,3.7 3.6,3.7 z m 53.1,6.5 c 0,-2.1 -1.4,-3.5 -3.6,-3.5 -2,0 -3.6,1.7 -3.6,3.6 0,1.9 1.8,3.6 3.7,3.6 2.1,0 3.5,-1.6 3.5,-3.7 z M 42,89.6 c 0,-1.9 -1.7,-3.7 -3.6,-3.7 -2,0 -3.6,1.6 -3.6,3.6 0,2.1 1.4,3.6 3.5,3.6 2.1,0.1 3.7,-1.5 3.7,-3.5 z m 7.1,10 c 0,-2 -1.5,-3.6 -3.6,-3.6 -2,0 -3.7,1.6 -3.7,3.6 0,1.9 1.7,3.6 3.6,3.7 2,-0.1 3.7,-1.7 3.7,-3.7 z m 14.2,0 c 0,-2 -1.7,-3.6 -3.7,-3.6 -2,0 -3.6,1.6 -3.6,3.6 0,2 1.6,3.6 3.6,3.6 2,0 3.7,-1.7 3.7,-3.6 z M 112.8,80 c 0,2 1.6,3.7 3.6,3.6 1.9,0 3.6,-1.8 3.6,-3.7 0,-2 -1.6,-3.6 -3.7,-3.6 -2.1,0.1 -3.5,1.5 -3.5,3.7 z M 91.5,40.1 C 91.5,38 90,36.4 88,36.4 c -2,0 -3.7,1.6 -3.7,3.6 0,1.9 1.7,3.7 3.6,3.7 2,0 3.6,-1.6 3.6,-3.6 z m 10.7,36.3 c -2,0 -3.7,1.5 -3.7,3.5 0,1.9 1.6,3.7 3.6,3.7 1.9,0.1 3.6,-1.6 3.7,-3.6 0,-2 -1.5,-3.6 -3.6,-3.6 z M 95.1,46.6 c -2,0 -3.6,1.5 -3.6,3.6 0,2.1 1.5,3.6 3.5,3.7 2,0 3.7,-1.6 3.7,-3.6 0.1,-1.9 -1.6,-3.6 -3.6,-3.7 z m 0,20 c -2.1,0 -3.6,1.5 -3.6,3.6 0,2.1 1.5,3.7 3.5,3.7 1.9,0 3.7,-1.7 3.7,-3.6 0.1,-2 -1.6,-3.6 -3.6,-3.7 z m 14.2,6.9 c 2.1,0 3.6,-1.5 3.5,-3.6 0,-2 -1.7,-3.6 -3.6,-3.6 -2,0 -3.6,1.8 -3.6,3.7 0,2 1.7,3.5 3.7,3.5 z m 3.5,-23.4 c 0,-2 -1.5,-3.7 -3.5,-3.8 -1.9,-0.1 -3.7,1.6 -3.7,3.6 -0.1,2 1.5,3.6 3.6,3.7 2.1,0 3.6,-1.4 3.6,-3.5 z m -85,9.4 c -0.1,2.1 1.3,3.7 3.3,3.8 2,0.1 3.7,-1.4 3.8,-3.4 0.1,-2 -1.4,-3.7 -3.4,-3.9 -2,-0.1 -3.6,1.4 -3.7,3.5 z m 10.6,13.7 c 2.1,0 3.6,-1.6 3.6,-3.6 0,-2 -1.6,-3.5 -3.6,-3.5 -2.1,0 -3.6,1.5 -3.6,3.6 0,2.1 1.5,3.5 3.6,3.5 z m -10.6,6.4 c 0,2.1 1.5,3.7 3.5,3.7 2,0 3.6,-1.6 3.6,-3.6 0,-2.1 -1.5,-3.6 -3.6,-3.6 -2.1,-0.1 -3.5,1.4 -3.5,3.5 z m 28.3,-9.7 c 0,-2.1 -1.5,-3.6 -3.6,-3.6 -2,0 -3.5,1.6 -3.5,3.7 0,2.1 1.5,3.6 3.6,3.5 2.1,0 3.5,-1.4 3.5,-3.6 z m 0,20 c 0,-2 -1.6,-3.7 -3.5,-3.7 -2,0 -3.6,1.6 -3.6,3.6 0,2.1 1.5,3.6 3.5,3.6 2.1,0.1 3.6,-1.4 3.6,-3.5 z m 35.4,10 c 0,-2.1 -1.4,-3.6 -3.5,-3.5 -2,0 -3.7,1.6 -3.7,3.6 0,1.9 1.7,3.5 3.7,3.5 2.2,-0.1 3.5,-1.4 3.5,-3.6 z m -17.8,3.8 c 2.1,0 3.7,-1.5 3.7,-3.5 0.1,-1.9 -1.6,-3.7 -3.6,-3.7 -2,-0.1 -3.6,1.6 -3.7,3.6 0.1,2.1 1.6,3.6 3.6,3.6 z M 70.3,30.1 c 0,-2.1 -1.4,-3.5 -3.5,-3.6 -2.1,0 -3.6,1.5 -3.7,3.5 0,1.9 1.6,3.6 3.6,3.6 2.1,0 3.6,-1.4 3.6,-3.5 z m -14.2,20 c 0,-2 -1.5,-3.7 -3.5,-3.7 -1.9,0 -3.6,1.6 -3.6,3.6 0,2.1 1.4,3.6 3.5,3.6 2.1,0 3.6,-1.4 3.6,-3.5 z M 73.9,16.8 c -2.1,0 -3.6,1.4 -3.7,3.5 0,2 1.5,3.7 3.5,3.7 1.9,0.1 3.7,-1.6 3.7,-3.6 0.1,-2 -1.4,-3.6 -3.5,-3.6 z M 49,109.9 c 0,2 1.6,3.6 3.6,3.6 2,0 3.5,-1.6 3.5,-3.7 0,-2.1 -1.5,-3.6 -3.6,-3.6 -2,0.1 -3.5,1.6 -3.5,3.7 z M 73.9,83.8 c 2,0 3.6,-1.7 3.6,-3.7 0,-1.9 -1.9,-3.7 -3.7,-3.6 -2,0.1 -3.5,1.7 -3.5,3.7 0,2.2 1.5,3.6 3.6,3.6 z m 3.6,-43.5 c 0,-1.9 -1.7,-3.6 -3.7,-3.6 -2.1,0 -3.6,1.5 -3.6,3.6 0,2 1.6,3.7 3.6,3.7 1.9,0 3.7,-1.8 3.7,-3.7 z m 24.7,63.1 c 2.1,0 3.6,-1.5 3.6,-3.6 0,-2 -1.6,-3.5 -3.7,-3.5 -2,0 -3.6,1.6 -3.6,3.6 0,2 1.6,3.5 3.7,3.5 z M 24.1,73.2 c 2.1,0.1 3.7,-1.3 3.7,-3.4 0.1,-2.1 -1.4,-3.6 -3.5,-3.7 -2,-0.1 -3.7,1.4 -3.8,3.4 0,2 1.6,3.7 3.6,3.7 z m 49.7,-9.4 c 2,0 3.7,-1.6 3.7,-3.5 0,-2 -1.6,-3.5 -3.7,-3.5 -2.1,0 -3.6,1.5 -3.6,3.6 0,1.9 1.5,3.4 3.6,3.4 z M 56.1,30.1 c 0,-2.1 -1.4,-3.6 -3.5,-3.6 -2.1,0 -3.6,1.4 -3.6,3.5 0,2.1 1.4,3.6 3.5,3.6 2.1,0 3.6,-1.4 3.6,-3.5 z"
       id="path53"
       inkscape:connector-curvature="0"
       style="fill:#ffffff" /><path
       d="m 84.6,50.3 c 0,2 -1.7,3.6 -3.7,3.6 -2,0 -3.6,-1.6 -3.6,-3.7 0,-2 1.7,-3.6 3.7,-3.6 1.9,0.1 3.6,1.8 3.6,3.7 z"
       id="path55"
       inkscape:connector-curvature="0" /><path
       d="m 84.6,70.3 c 0,2 -1.7,3.6 -3.7,3.6 -2,0 -3.6,-1.7 -3.5,-3.7 0,-2 1.7,-3.6 3.7,-3.5 1.9,0 3.5,1.6 3.5,3.6 z"
       id="path57"
       inkscape:connector-curvature="0" /><path
       d="m 63.3,79.6 c 0,2 -1.6,3.7 -3.6,3.7 -2,0.1 -3.6,-1.6 -3.7,-3.6 -0.1,-2 1.5,-3.7 3.5,-3.7 2,0 3.8,1.6 3.8,3.6 z"
       id="path59"
       inkscape:connector-curvature="0" /><path
       d="m 105.8,40 c 0,2 -1.7,3.7 -3.6,3.7 -1.9,0 -3.6,-1.7 -3.6,-3.7 0,-2 1.6,-3.6 3.6,-3.6 2,0 3.6,1.6 3.6,3.6 z"
       id="path61"
       inkscape:connector-curvature="0" /><path
       d="m 80.8,93.9 c -2,-0.1 -3.6,-1.7 -3.5,-3.7 0,-2 1.7,-3.6 3.7,-3.5 2,0 3.6,1.7 3.6,3.7 -0.1,1.9 -1.8,3.5 -3.8,3.5 z"
       id="path63"
       inkscape:connector-curvature="0" /><path
       d="m 80.8,33.9 c -2,0 -3.6,-1.7 -3.5,-3.7 0.1,-2 1.8,-3.6 3.7,-3.5 2,0.1 3.6,1.8 3.5,3.8 0,1.9 -1.7,3.5 -3.7,3.4 z"
       id="path65"
       inkscape:connector-curvature="0" /><path
       d="m 49.1,79.6 c 0,2 -1.6,3.7 -3.5,3.7 -1.9,0 -3.7,-1.6 -3.7,-3.6 -0.1,-1.9 1.6,-3.6 3.6,-3.7 1.9,0 3.5,1.6 3.6,3.6 z"
       id="path67"
       inkscape:connector-curvature="0" /><path
       d="m 45.5,63.3 c -2,0 -3.7,-1.6 -3.7,-3.6 0,-1.9 1.7,-3.7 3.6,-3.7 2,0 3.6,1.6 3.7,3.6 0,2.1 -1.6,3.7 -3.6,3.7 z"
       id="path69"
       inkscape:connector-curvature="0" /><path
       d="m 59.6,56 c 2,0 3.7,1.6 3.7,3.6 0,1.9 -1.7,3.6 -3.6,3.6 -2,0 -3.6,-1.6 -3.6,-3.6 C 56,57.7 57.7,56 59.6,56 z"
       id="path71"
       inkscape:connector-curvature="0" /><path
       d="m 116.4,56.4 c 2,0 3.6,1.6 3.6,3.6 0,2 -1.7,3.6 -3.7,3.6 -2,0 -3.5,-1.6 -3.5,-3.7 0,-2 1.5,-3.5 3.6,-3.5 z"
       id="path73"
       inkscape:connector-curvature="0" /><path
       d="m 66.6,73.5 c -2,-0.1 -3.6,-1.8 -3.5,-3.7 0.1,-2 1.8,-3.6 3.8,-3.5 2,0.1 3.5,1.7 3.4,3.8 -0.1,2.1 -1.6,3.5 -3.7,3.4 z"
       id="path75"
       inkscape:connector-curvature="0" /><path
       d="m 105.8,59.9 c 0,2 -1.5,3.7 -3.5,3.7 -2,0 -3.7,-1.6 -3.7,-3.5 -0.1,-2 1.6,-3.6 3.6,-3.7 2,0 3.5,1.5 3.6,3.5 z"
       id="path77"
       inkscape:connector-curvature="0" /><path
       d="m 70.3,50.1 c -0.1,2.1 -1.6,3.5 -3.7,3.4 -2,-0.1 -3.6,-1.7 -3.5,-3.7 0.1,-1.9 1.9,-3.6 3.8,-3.5 2,0.1 3.5,1.8 3.4,3.8 z"
       id="path79"
       inkscape:connector-curvature="0" /><path
       d="m 91.6,30.3 c 0,-2 1.6,-3.6 3.6,-3.6 1.9,0 3.6,1.8 3.6,3.7 0,2 -1.7,3.6 -3.7,3.5 -2.1,0 -3.6,-1.5 -3.5,-3.6 z"
       id="path81"
       inkscape:connector-curvature="0" /><path
       d="m 91.5,80 c 0,2 -1.7,3.7 -3.6,3.6 -1.9,-0.1 -3.6,-1.8 -3.6,-3.7 0,-2 1.7,-3.6 3.7,-3.5 2.1,0 3.6,1.5 3.5,3.6 z"
       id="path83"
       inkscape:connector-curvature="0" /><path
       d="m 127,70 c 0,2 -1.6,3.6 -3.6,3.6 -2,0 -3.7,-1.6 -3.7,-3.6 0,-1.9 1.7,-3.6 3.7,-3.6 2,-0.1 3.6,1.6 3.6,3.6 z"
       id="path85"
       inkscape:connector-curvature="0" /><path
       d="m 73.7,123.7 c -2,0 -3.5,-1.6 -3.5,-3.7 0.1,-2 1.7,-3.6 3.7,-3.6 1.9,0.1 3.6,1.9 3.6,3.8 -0.1,2 -1.7,3.6 -3.8,3.5 z"
       id="path87"
       inkscape:connector-curvature="0" /><path
       d="m 70.3,90 c 0,2.1 -1.6,3.6 -3.6,3.6 -2,0 -3.6,-1.7 -3.6,-3.7 0,-2 1.7,-3.6 3.7,-3.6 1.9,0 3.5,1.6 3.5,3.7 z"
       id="path89"
       inkscape:connector-curvature="0" /><path
       d="m 109.3,93.5 c -2,0 -3.7,-1.6 -3.7,-3.5 -0.1,-1.9 1.7,-3.7 3.6,-3.7 1.9,-0.1 3.6,1.6 3.7,3.6 0,2 -1.5,3.6 -3.6,3.6 z"
       id="path91"
       inkscape:connector-curvature="0" /><path
       d="m 91.6,90.2 c 0,-2.1 1.4,-3.6 3.5,-3.6 2,0 3.7,1.6 3.7,3.6 0,1.9 -1.7,3.7 -3.6,3.7 -2.1,0 -3.6,-1.6 -3.6,-3.7 z"
       id="path93"
       inkscape:connector-curvature="0" /><path
       d="m 70.3,109.9 c 0,2 -1.6,3.6 -3.6,3.6 -2,0 -3.6,-1.7 -3.6,-3.7 0,-2 1.7,-3.6 3.7,-3.6 2,0.1 3.5,1.6 3.5,3.7 z"
       id="path95"
       inkscape:connector-curvature="0" /><path
       d="m 80.8,106.6 c 2.1,0 3.7,1.5 3.7,3.5 0,2 -1.6,3.7 -3.6,3.7 -2,0.1 -3.6,-1.6 -3.7,-3.6 0,-2 1.6,-3.6 3.6,-3.6 z"
       id="path97"
       inkscape:connector-curvature="0" /><path
       d="m 91.5,110.1 c 0,-2.1 1.4,-3.5 3.6,-3.5 2,0 3.7,1.6 3.7,3.5 0,1.9 -1.8,3.6 -3.7,3.7 -2,0 -3.6,-1.6 -3.6,-3.7 z"
       id="path99"
       inkscape:connector-curvature="0" /><path
       d="m 49.1,39.8 c 0,2 -1.6,3.6 -3.7,3.5 -2,0 -3.6,-1.7 -3.6,-3.6 0,-1.9 1.8,-3.6 3.7,-3.6 2,0 3.6,1.7 3.6,3.7 z"
       id="path101"
       inkscape:connector-curvature="0" /><path
       d="m 63.3,39.7 c 0,2 -1.7,3.6 -3.7,3.6 -2,0 -3.6,-1.6 -3.6,-3.6 0,-2 1.7,-3.6 3.6,-3.6 2,0 3.7,1.8 3.7,3.6 z"
       id="path103"
       inkscape:connector-curvature="0" /><path
       d="m 38.4,53.4 c -2,0 -3.6,-1.6 -3.6,-3.6 0,-2.1 1.5,-3.6 3.6,-3.6 2,0 3.6,1.6 3.6,3.6 0,1.8 -1.7,3.6 -3.6,3.6 z"
       id="path105"
       inkscape:connector-curvature="0" /><path
       d="m 91.5,59.9 c 0,2.1 -1.5,3.7 -3.5,3.7 -1.9,0 -3.7,-1.7 -3.7,-3.6 0,-2 1.6,-3.6 3.6,-3.6 2.2,0 3.6,1.4 3.6,3.5 z"
       id="path107"
       inkscape:connector-curvature="0" /><path
       d="m 42,89.6 c 0,2 -1.7,3.6 -3.7,3.6 -2.1,0 -3.5,-1.5 -3.5,-3.6 0,-2 1.6,-3.6 3.6,-3.6 1.9,-0.1 3.6,1.7 3.6,3.6 z"
       id="path109"
       inkscape:connector-curvature="0" /><path
       d="m 49.1,99.6 c 0,2 -1.6,3.6 -3.6,3.6 -2,0 -3.7,-1.7 -3.6,-3.7 0,-2 1.7,-3.6 3.7,-3.6 1.9,0.1 3.5,1.7 3.5,3.7 z"
       id="path111"
       inkscape:connector-curvature="0" /><path
       d="m 63.3,99.6 c 0,1.9 -1.7,3.6 -3.7,3.6 -2,0 -3.6,-1.6 -3.6,-3.6 0,-2 1.6,-3.6 3.6,-3.6 2.1,0 3.7,1.6 3.7,3.6 z"
       id="path113"
       inkscape:connector-curvature="0" /><path
       d="m 112.8,80 c 0,-2.1 1.5,-3.6 3.5,-3.6 2,0 3.7,1.6 3.7,3.6 0,1.9 -1.7,3.7 -3.6,3.7 -2,-0.1 -3.6,-1.7 -3.6,-3.7 z"
       id="path115"
       inkscape:connector-curvature="0" /><path
       d="m 91.5,40.1 c 0,2 -1.6,3.6 -3.6,3.6 -1.9,0 -3.6,-1.8 -3.6,-3.7 0,-2 1.7,-3.6 3.7,-3.6 2,0 3.6,1.6 3.5,3.7 z"
       id="path117"
       inkscape:connector-curvature="0" /><path
       d="m 102.2,76.4 c 2,0 3.6,1.6 3.5,3.7 0,2 -1.7,3.7 -3.7,3.6 -1.9,-0.1 -3.6,-1.8 -3.6,-3.7 0.2,-2.1 1.8,-3.7 3.8,-3.6 z"
       id="path119"
       inkscape:connector-curvature="0" /><path
       d="m 95.1,46.6 c 1.9,0 3.6,1.8 3.6,3.7 0,2 -1.7,3.6 -3.7,3.6 -2,0 -3.5,-1.6 -3.5,-3.7 0.1,-2 1.6,-3.6 3.6,-3.6 z"
       id="path121"
       inkscape:connector-curvature="0" /><path
       d="m 95.1,66.6 c 2,0 3.6,1.7 3.6,3.6 0,1.9 -1.8,3.6 -3.7,3.6 -2,0 -3.5,-1.6 -3.5,-3.7 0.1,-2 1.6,-3.5 3.6,-3.5 z"
       id="path123"
       inkscape:connector-curvature="0" /><path
       d="m 109.3,73.5 c -2.1,0 -3.7,-1.5 -3.7,-3.5 0,-1.9 1.6,-3.7 3.6,-3.7 2,0 3.6,1.6 3.6,3.6 0.1,2.1 -1.4,3.6 -3.5,3.6 z"
       id="path125"
       inkscape:connector-curvature="0" /><path
       d="m 112.8,50.1 c 0,2.1 -1.6,3.5 -3.7,3.5 -2,0 -3.6,-1.7 -3.6,-3.7 0.1,-1.9 1.8,-3.6 3.7,-3.6 2.1,0.1 3.7,1.8 3.6,3.8 z"
       id="path127"
       inkscape:connector-curvature="0" /><path
       d="m 27.8,59.5 c 0.1,-2.1 1.7,-3.6 3.7,-3.5 2,0.1 3.5,1.8 3.4,3.9 -0.1,2 -1.7,3.5 -3.8,3.4 -2.1,-0.1 -3.4,-1.7 -3.3,-3.8 z"
       id="path129"
       inkscape:connector-curvature="0" /><path
       d="m 38.4,73.2 c -2.1,0 -3.6,-1.4 -3.6,-3.5 0,-2.1 1.5,-3.6 3.6,-3.6 2.1,0 3.6,1.5 3.6,3.5 0,2.1 -1.6,3.6 -3.6,3.6 z"
       id="path131"
       inkscape:connector-curvature="0" /><path
       d="m 27.8,79.6 c 0,-2.1 1.5,-3.6 3.6,-3.6 2,0 3.6,1.5 3.6,3.6 0,2 -1.6,3.6 -3.6,3.6 -2.1,0.1 -3.6,-1.5 -3.6,-3.6 z"
       id="path133"
       inkscape:connector-curvature="0" /><path
       d="m 56.1,69.9 c 0,2.1 -1.4,3.6 -3.5,3.6 -2.1,0 -3.6,-1.4 -3.6,-3.5 0,-2.1 1.5,-3.7 3.5,-3.7 2.1,0 3.6,1.6 3.6,3.6 z"
       id="path135"
       inkscape:connector-curvature="0" /><path
       d="m 56.1,89.9 c 0,2.1 -1.5,3.6 -3.6,3.6 -2.1,0 -3.5,-1.5 -3.5,-3.6 0,-2 1.6,-3.7 3.6,-3.6 1.9,0 3.5,1.6 3.5,3.6 z"
       id="path137"
       inkscape:connector-curvature="0" /><path
       d="m 91.5,99.9 c 0,2.2 -1.3,3.5 -3.5,3.5 -2,0 -3.7,-1.6 -3.7,-3.5 0,-1.9 1.6,-3.6 3.7,-3.6 2.1,0 3.5,1.4 3.5,3.6 z"
       id="path139"
       inkscape:connector-curvature="0" /><path
       d="m 73.7,103.7 c -2.1,0 -3.5,-1.5 -3.5,-3.6 0,-2 1.7,-3.6 3.7,-3.6 1.9,0.1 3.6,1.8 3.6,3.7 -0.1,2.1 -1.7,3.6 -3.8,3.5 z"
       id="path141"
       inkscape:connector-curvature="0" /><path
       d="m 70.3,30.1 c 0,2.1 -1.5,3.5 -3.6,3.5 -2,0 -3.6,-1.6 -3.6,-3.6 0,-2 1.6,-3.5 3.7,-3.5 2.1,0 3.5,1.4 3.5,3.6 z"
       id="path143"
       inkscape:connector-curvature="0" /><path
       d="m 56.1,50.1 c 0,2.1 -1.5,3.6 -3.6,3.5 -2.1,0 -3.5,-1.5 -3.5,-3.6 0,-2 1.7,-3.7 3.6,-3.6 2,0 3.5,1.6 3.5,3.7 z"
       id="path145"
       inkscape:connector-curvature="0" /><path
       d="m 73.9,16.8 c 2,0 3.6,1.6 3.6,3.6 0,1.9 -1.8,3.6 -3.7,3.6 -2,-0.1 -3.5,-1.7 -3.5,-3.7 0,-2.1 1.5,-3.5 3.6,-3.5 z"
       id="path147"
       inkscape:connector-curvature="0" /><path
       d="m 49,109.9 c 0,-2.1 1.5,-3.6 3.5,-3.6 2.1,0 3.6,1.5 3.6,3.6 0,2.1 -1.5,3.7 -3.5,3.7 -2,-0.1 -3.6,-1.7 -3.6,-3.7 z"
       id="path149"
       inkscape:connector-curvature="0" /><path
       d="m 73.9,83.8 c -2.1,0 -3.6,-1.4 -3.7,-3.5 0,-2 1.5,-3.7 3.5,-3.7 1.9,-0.1 3.7,1.7 3.7,3.6 0.1,1.9 -1.5,3.6 -3.5,3.6 z"
       id="path151"
       inkscape:connector-curvature="0" /><path
       d="m 77.5,40.3 c 0,1.9 -1.8,3.7 -3.7,3.7 -2,0 -3.6,-1.6 -3.6,-3.7 0,-2.1 1.5,-3.6 3.6,-3.6 2,0 3.7,1.7 3.7,3.6 z"
       id="path153"
       inkscape:connector-curvature="0" /><path
       d="m 102.2,103.4 c -2.1,0 -3.7,-1.5 -3.7,-3.5 0,-2 1.6,-3.6 3.6,-3.6 2.1,0 3.6,1.5 3.7,3.5 0,2.1 -1.5,3.6 -3.6,3.6 z"
       id="path155"
       inkscape:connector-curvature="0" /><path
       d="m 24.1,73.2 c -2,-0.1 -3.6,-1.7 -3.5,-3.7 0.1,-2 1.8,-3.5 3.8,-3.4 2.1,0.1 3.5,1.6 3.5,3.7 -0.1,2.1 -1.7,3.5 -3.8,3.4 z"
       id="path157"
       inkscape:connector-curvature="0" /><path
       d="m 73.8,63.8 c -2.1,0 -3.6,-1.5 -3.6,-3.5 0,-2.1 1.5,-3.6 3.6,-3.6 2,0 3.7,1.6 3.7,3.5 0,2.1 -1.6,3.6 -3.7,3.6 z"
       id="path159"
       inkscape:connector-curvature="0" /><path
       d="m 56.1,30.1 c 0,2.1 -1.5,3.6 -3.6,3.5 -2.1,0 -3.5,-1.5 -3.5,-3.6 0,-2.1 1.4,-3.5 3.6,-3.5 2.1,0 3.5,1.4 3.5,3.6 z"
       id="path161"
       inkscape:connector-curvature="0" /></g></svg>